<svg width="128" height="128" viewBox="0 0 128 128" xmlns="http://www.w3.org/2000/svg"><title>icon</title><desc>Created with Sketch.</desc><g fill="none"><path fill="#DF003B" d="M0 0h128v128h-128z"/><g fill-rule="nonzero" fill="#fff"><path id="Shape" d="M24.042 105.428v-6.273h-4.388v6.273h-3.461v-14.634h3.461v5.662h4.388v-5.662h3.468v14.634zM39.776 100.806h-6.944c.022.735.305 1.438.799 1.983.494.401 1.121.603 1.757.565.446.003.889-.079 1.304-.241.486-.194.947-.448 1.372-.754l1.372 1.855c-1.229 1.012-2.773 1.564-4.365 1.561-1.561.103-3.09-.48-4.184-1.598-1.016-1.2-1.537-2.742-1.455-4.312-.007-1.054.212-2.098.641-3.061.382-.872 1.005-1.617 1.794-2.149 2.129-1.272 4.845-.963 6.635.754.966 1.176 1.456 2.672 1.372 4.192-.006.404-.039.807-.098 1.206zm-3.204-2.156c0-1.719-.641-2.578-1.817-2.578-.524-.022-1.026.215-1.342.633-.38.633-.581 1.358-.581 2.096h3.77l-.03-.151zM42.362 104.953c-.579-.653-.872-1.511-.814-2.382v-12.817l3.332-.354v13.043c0 .467.196.694.573.694.189.004.376-.032.55-.106l.656 2.375c-.644.261-1.334.389-2.028.377-.839.052-1.662-.249-2.269-.829zM57.35 95.423c.76 1.324 1.118 2.841 1.033 4.365.016 1.057-.166 2.108-.535 3.099-.313.837-.851 1.573-1.553 2.126-.683.509-1.516.774-2.367.754-1.041.051-2.049-.37-2.744-1.146v5.134l-3.31.354v-15.893h2.933l.166 1.244c.766-1.008 1.96-1.6 3.227-1.598 1.254-.079 2.455.515 3.151 1.561zm-2.397 4.41c.07-.942-.083-1.887-.445-2.759-.262-.484-.777-.777-1.327-.754-.383 0-.757.119-1.071.339-.375.248-.692.574-.927.957v4.727c.363.611 1.023.984 1.734.98 1.357 0 2.036-1.164 2.036-3.491zM69.639 92.016c1.094.848 1.696 2.184 1.606 3.566.094 1.422-.487 2.804-1.568 3.732-1.22.888-2.708 1.33-4.214 1.252h-1.583v4.878h-3.461v-14.649h4.727c1.59-.089 3.167.34 4.493 1.221zm-2.624 5.466c.476-.518.709-1.215.641-1.915 0-1.508-.859-2.274-2.578-2.299h-1.221v4.78h1.289c.672.049 1.338-.152 1.87-.565zM79.908 94.051l-.535 3.242c-.33-.085-.669-.133-1.01-.143-.585-.036-1.151.221-1.508.686-.405.615-.674 1.309-.792 2.036v5.556h-3.332v-11.211h2.91l.271 2.171c.212-.701.611-1.332 1.154-1.825.478-.431 1.099-.667 1.742-.663.372-.001.742.05 1.101.151zM90.734 100.806h-6.951c.024.736.31 1.439.807 1.983.491.401 1.116.603 1.749.565.449.003.894-.079 1.312-.241.486-.196.946-.449 1.372-.754l1.365 1.862c-1.232 1.013-2.778 1.564-4.373 1.561-1.559.103-3.085-.481-4.177-1.598-1.016-1.2-1.537-2.742-1.455-4.312-.017-1.055.191-2.101.611-3.068.38-.873 1.003-1.619 1.794-2.149 2.126-1.274 4.842-.965 6.627.754.973 1.184 1.464 2.692 1.372 4.222.003.393-.014.785-.053 1.176zm-3.212-2.156c0-1.719-.633-2.578-1.817-2.578-.524-.021-1.025.216-1.342.633-.377.635-.577 1.358-.581 2.096h3.77l-.03-.151zM98.914 94.217c.672.227 1.3.568 1.855 1.01l-1.229 1.885c-.817-.55-1.775-.851-2.759-.867-.348-.019-.694.056-1.003.219-.223.129-.359.368-.354.626-.004.186.051.368.158.52.187.178.407.316.648.407.492.199.995.368 1.508.505.959.233 1.852.685 2.609 1.319.587.602.896 1.422.852 2.262.015.712-.217 1.407-.656 1.968-.47.583-1.09 1.027-1.794 1.282-.81.301-1.669.45-2.533.437-.893.009-1.782-.139-2.624-.437-.762-.266-1.463-.684-2.058-1.229l1.621-1.809c.85.7 1.915 1.086 3.016 1.093.414.021.827-.073 1.191-.271.267-.158.43-.444.43-.754.012-.223-.046-.445-.166-.633-.177-.199-.403-.347-.656-.43-.493-.193-.996-.36-1.508-.498-.933-.224-1.792-.689-2.488-1.35-.552-.58-.85-1.356-.829-2.156-.006-.625.19-1.236.558-1.742.417-.543.971-.965 1.606-1.221.767-.314 1.591-.468 2.42-.452.741-.011 1.479.095 2.186.317zM109.236 94.217c.672.227 1.3.568 1.855 1.01l-1.221 1.885c-.82-.549-1.78-.85-2.767-.867-.348-.019-.694.056-1.003.219-.221.129-.354.369-.347.626-.008.186.048.37.158.52.182.18.401.319.641.407.492.199.995.368 1.508.505.959.233 1.852.685 2.609 1.319.587.602.896 1.422.852 2.262.015.712-.217 1.407-.656 1.968-.47.583-1.09 1.027-1.794 1.282-.81.303-1.669.451-2.533.437-.893.009-1.782-.139-2.624-.437-.762-.266-1.463-.684-2.058-1.229l1.621-1.809c.84.692 1.89 1.078 2.978 1.093.414.021.827-.073 1.191-.271.271-.154.438-.442.437-.754.01-.224-.051-.446-.173-.633-.175-.197-.398-.346-.648-.43-.505-.195-1.021-.362-1.546-.498-.932-.227-1.789-.692-2.488-1.35-.568-.581-.878-1.366-.859-2.179-.01-.626.186-1.238.558-1.742.414-.545.97-.968 1.606-1.221.765-.315 1.586-.469 2.413-.452.778-.016 1.552.098 2.292.339z"/></g><path d="M94 48c0-16.569-13.431-30-30-30-16.569 0-30 13.431-30 30 0 16.569 13.431 30 30 30 16.569 0 30-13.431 30-30zm-40.38-24.12l5.58 13.995c-2.34 1.102-4.223 2.985-5.325 5.325l-13.98-5.595c2.665-6.153 7.572-11.06 13.725-13.725zm34.5 13.725l-13.995 5.595c-1.102-2.34-2.985-4.223-5.325-5.325l5.595-13.995c6.149 2.67 11.055 7.576 13.725 13.725zm-24.12 17.895c-4.142 0-7.5-3.358-7.5-7.5 0-4.142 3.358-7.5 7.5-7.5 4.142 0 7.5 3.358 7.5 7.5 0 1.989-.79 3.897-2.197 5.303-1.407 1.407-3.314 2.197-5.303 2.197zm-24.12 2.88l13.995-5.58c1.102 2.34 2.985 4.223 5.325 5.325l-5.595 13.98c-6.153-2.665-11.06-7.572-13.725-13.725zm34.5 13.725l-5.58-13.98c2.337-1.106 4.219-2.988 5.325-5.325l13.98 5.58c-2.661 6.155-7.57 11.064-13.725 13.725z" fill="#fff" fill-rule="nonzero"/></g></svg>